# AST/ASF file generated using VICON BodyLanguage
# -----------------------------------------------
:version 1.10
:name VICON
:units
  mass 1.0
  length 0.45
  angle deg
:documentation
   .ast/.asf automatically generated from VICON data using
   VICON BodyBuilder and BodyLanguage model FoxedUp or BRILLIANT.MOD
:root
   order TX TY TZ RX RY RZ
   axis XYZ
   position 0 0 0  
   orientation 0 0 0 
:bonedata
  begin
     id 1 
     name lhipjoint
     direction 0.660183 -0.676772 0.325788 
     length 2.75133 
     axis 0 0 0  XYZ
  end
  begin
     id 2 
     name lfemur
     direction 0.34202 -0.939693 0  
     length 7.70317  
     axis 0 0 20  XYZ
    dof rx ry rz
    limits (-160.0 20.0)
           (-70.0 70.0)
           (-60.0 70.0)
  end
  begin
     id 3 
     name ltibia
     direction 0.342105 -0.939662 0   
     length 7.18701   
     axis 0 0 20   XYZ
    dof rx
    limits (-10.0 170.0)
  end
  begin
     id 4 
     name lfoot
     direction 0.14163 -0.389126 0.910232   
     length 2.41719   
     axis -90 7.62852e-016 20   XYZ
    dof rx rz
    limits (-45.0 90.0)
           (-70.0 20.0)
  end
  begin
     id 5 
     name ltoes
     direction 1.53533e-011 -4.21926e-011 1   
     length 1.18611   
     axis -90 7.62852e-016 20   XYZ
    dof rx
    limits (-90.0 20.0)
  end
  begin
     id 6 
     name rhipjoint
     direction -0.6658 -0.67229 0.323631   
     length 2.76968  
     axis 0 0 0  XYZ 
  end
  begin
     id 7 
     name rfemur
     direction -0.34202 -0.939693 0   
     length 7.92547   
     axis 0 0 -20   XYZ
    dof rx ry rz
    limits (-160.0 20.0)
           (-70.0 70.0)
           (-70.0 60.0)
  end
  begin
     id 8 
     name rtibia
     direction -0.342022 -0.939692 0   
     length 7.22641   
     axis 0 0 -20   XYZ
    dof rx
    limits (-10.0 170.0)
 end
 begin
     id 9 
     name rfoot
     direction -0.105675 -0.29034 0.951071   
     length 2.48149  
     axis -90 -7.62852e-016 -20   XYZ
    dof rx rz
    limits (-45.0 90.0)
           (-20.0 70.0)
  end
  begin
     id 10 
     name rtoes
     direction -1.5349e-011 -4.21859e-011 1   
     length 1.23343   
     axis -90 -7.62852e-016 -20   XYZ
    dof rx
    limits (-90.0 20.0)
  end
  begin
     id 11 
     name lowerback
     direction 0.0104173 0.993624 -0.112266   
     length 2.00527   
     axis 0 0 0   XYZ
    dof rx ry rz
    limits (-20.0 45.0)
           (-30.0 30.0)
           (-30.0 30.0)
  end
  begin
     id 12 
     name upperback
     direction 0.00733149 0.999856 -0.0152913   
     length 2.01385   
     axis 0 0 0   XYZ
    dof rx ry rz
    limits (-20.0 45.0)
           (-30.0 30.0)
           (-30.0 30.0)
  end
  begin
     id 13 
     name thorax
     direction 0.0026304 0.999318 0.036841   
     length 2.03734   
     axis 0 0 0   XYZ
    dof rx ry rz
    limits (-20.0 45.0)
           (-30.0 30.0)
           (-30.0 30.0)
  end
  begin
     id 14 
     name lowerneck
     direction 0.0293154 0.998757 0.0403082   
     length 1.65303   
     axis 0 0 0   XYZ
    dof rx ry rz
    limits (-20.0 45.0)
           (-30.0 30.0)
           (-30.0 30.0)
  end
  begin
     id 15 
     name upperneck
     direction -0.0376619 0.998184 -0.0470083   
     length 1.60926   
     axis 0 0 0   XYZ
    dof rx ry rz
    limits (-20.0 45.0)
           (-30.0 30.0)
           (-30.0 30.0)
  end
  begin
     id 16
     name head
     direction -0.0170133 0.999635 -0.0209778  
     length 1.73625  
     axis 0 0 0   XYZ
    dof rx ry rz
    limits (-20.0 45.0)
           (-30.0 30.0)
           (-30.0 30.0)
  end
  begin
     id 17 
     name lclavicle
     direction 0.919857 0.39181 -0.0186333  
     length 3.75313  
     axis 0 0 0   XYZ
    dof ry rz
    limits (-20.0 10.0)
           (0.0 20.0)
  end
  begin
     id 18 
     name lhumerus
     direction 1 -4.48988e-011 1.44029e-027   
     length 5.49313   
     axis 180 -30 -90   XYZ
    dof rx ry rz
    limits (-60.0 90.0)
           (-90.0 90.0)
           (-90.0 90.0)
  end
  begin
     id 19
     name lradius
     direction 1 -4.48924e-011 7.46281e-027   
     length 3.29037   
     axis 180 -30 -90   XYZ
    dof rx
    limits (-10.0 170.0)
  end
  begin
     id 20
     name lwrist
     direction 1 -4.48955e-011 2.19879e-026   
     length 1.64519   
     axis -1.34358e-014 90 90   XYZ
    dof ry
    limits (-180.0 0.0)
 end
  begin
     id 21 
     name lhand
     direction 1 -4.48978e-011 4.39747e-026   
     length 0.729656   
     axis -2.80598e-014 90 90   XYZ
    dof rx rz
    limits (-90.0 90.0)
           (-45.0 45.0)
  end
  begin
     id 22 
     name lfingers
     direction 1 -4.49071e-011 8.79411e-026   
     length 0.588268   
     axis -5.61193e-014 90 90   XYZ
    dof rx
    limits (0.0 90.0)
  end
  begin
     id 23
     name lthumb
     direction 0.707107 -6.34817e-011 0.707107   
     length 0.844638   
     axis -90 45 -9.86923e-015   XYZ
    dof rx rz
    limits (-45.0 45.0)
           (-45.0 45.0)
  end
  begin
     id 24 
     name rclavicle
     direction -0.919898 0.388279 0.0550233   
     length 3.7171  
     axis 0 0 0   XYZ 
    dof ry rz
    limits (-10.0 20.0)
           (-20.0 0.0)
  end
  begin
     id 25 
     name rhumerus
     direction -1 -4.48968e-011 9.98372e-028  
     length 5.23684   
     axis 180 30 90   XYZ
    dof rx ry rz
    limits (-90.0 60.0)
           (-90.0 90.0)
           (-90.0 90.0)
  end
  begin
     id 26 
     name rradius
     direction -1 -4.48956e-011 1.01023e-026   
     length 3.38251   
     axis 180 30 90   XYZ
    dof rx
    limits (-10.0 170.0)
  end
  begin
     id 27 
     name rwrist
     direction -1 -4.4892e-011 2.19886e-026   
     length 1.69126   
     axis -1.34358e-014 -90 -90   XYZ
    dof ry
    limits (-180.0 0.0)
  end
  begin
     id 28
     name rhand
     direction -1 -4.49024e-011 4.39727e-026   
     length 0.691454   
     axis -2.80598e-014 -90 -90   XYZ
    dof rx rz
    limits (-90.0 90.0)
           (-45.0 45.0)
  end
  begin
     id 29
     name rfingers
     direction -1 -4.49097e-011 8.79388e-026   
     length 0.557468   
     axis -5.61193e-014 -90 -90   XYZ
    dof rx
    limits (0.0 90.0)
  end
  begin
     id 30
     name rthumb
     direction -0.707107 -6.34938e-011 0.707107   
     length 0.800416   
     axis -90 -45 9.86923e-015   XYZ
    dof rx rz
    limits (-45.0 45.0)
           (-45.0 45.0)
  end
:hierarchy
  begin
    root lhipjoint rhipjoint lowerback
    lhipjoint lfemur
    lfemur ltibia
    ltibia lfoot
    lfoot ltoes
    rhipjoint rfemur
    rfemur rtibia
    rtibia rfoot
    rfoot rtoes
    lowerback upperback
    upperback thorax
    thorax lowerneck lclavicle rclavicle
    lowerneck upperneck
    upperneck head
    lclavicle lhumerus
    lhumerus lradius
    lradius lwrist
    lwrist lhand lthumb
    lhand lfingers
    rclavicle rhumerus
    rhumerus rradius
    rradius rwrist
    rwrist rhand rthumb
    rhand rfingers
  end

#!OML:ASF H:\BabyWalks\Project 1\Capture day 1\Session 1\baby.ASF
:FULLY-SPECIFIED
:DEGREES
39
root -33.4524 17.7252 -1.46994 -57.0539 85.3301 -52.5481
lowerback 9.58722 -1.22964 0.671929
upperback 2.58503 -1.37556 2.75513
thorax -2.6361 -0.643496 2.63568
lowerneck -7.43917 2.19391 0.600174
upperneck 2.74929 2.99318 -2.39182
head 2.19665 1.43229 -0.738235
rclavicle -1.93815e-014 2.62396e-014
rhumerus -38.3631 10.5269 -82.1614
rradius 41.6048
rwrist 8.38839
rhand -3.90227 -13.6752
rfingers 7.12502
rthumb 21.8478 -42.4619
lclavicle -1.93815e-014 2.62396e-014
lhumerus -41.1476 4.78879 81.8227
lradius 42.6735
lwrist -2.52638
lhand 2.4587 10.4564
lfingers 7.12502
lthumb 27.9432 38.397
rfemur 4.73914 7.35399 23.1225
rtibia 14.9124
rfoot -15.9472 -19.6019
rtoes -2.64325
lfemur 1.38065 -9.31719 -12.6053
ltibia 21.0402
lfoot -18.1505 17.7348
ltoes -0.651922
40
root -33.4503 17.7253 -1.47009 -56.8384 85.3239 -52.3369
lowerback 9.58845 -1.22478 0.667821
upperback 2.58684 -1.36959 2.75358
thorax -2.63508 -0.640526 2.63569
lowerneck -7.43036 2.19373 0.603074
upperneck 2.75414 2.99269 -2.39144
head 2.19668 1.43209 -0.738701
rclavicle -9.0447e-015 -7.55382e-015
rhumerus -38.3222 10.4871 -82.1491
rradius 41.5429
rwrist 8.4263
rhand -3.90068 -13.6534
rfingers 7.12502
rthumb 21.8493 -42.4399
lclavicle -9.0447e-015 -7.55382e-015
lhumerus -41.1542 4.78114 81.8272
lradius 42.6754
lwrist -2.53272
lhand 2.47963 10.4295
lfingers 7.12502
lthumb 27.9632 38.3669
rfemur 4.73576 7.33894 23.1106
rtibia 14.9161
rfoot -15.9343 -19.5698
rtoes -2.69291
lfemur 1.39367 -9.32458 -12.6157
ltibia 21.0342
lfoot -18.1571 17.7546
ltoes -0.650313
41
root -33.4482 17.7255 -1.47025 -56.6502 85.3184 -52.1527
lowerback 9.58786 -1.22058 0.664797
upperback 2.59106 -1.36441 2.75217
thorax -2.63056 -0.637952 2.63524
lowerneck -7.42502 2.19283 0.606093
upperneck 2.7577 2.99128 -2.39237
head 2.19694 1.43139 -0.739619
rclavicle 2.60656e-014 -2.34566e-014
rhumerus -38.2743 10.4435 -82.1329
rradius 41.4761
rwrist 8.46655
rhand -3.89831 -13.6297
rfingers 7.12502
rthumb 21.8516 -42.4159
lclavicle 2.60656e-014 -2.34566e-014
lhumerus -41.1557 4.77231 81.8322
lradius 42.6761
lwrist -2.5394
lhand 2.49154 10.4289
lfingers 7.12502
lthumb 27.9746 38.3643
rfemur 4.73249 7.32476 23.0999
rtibia 14.9215
rfoot -15.9204 -19.5401
rtoes -2.74304
lfemur 1.40818 -9.33354 -12.6252
ltibia 21.0261
lfoot -18.1638 17.7721
ltoes -0.643709
42
root -33.4459 17.7256 -1.47046 -56.4299 85.3118 -51.9359
lowerback 9.58695 -1.21581 0.661106
upperback 2.5962 -1.35854 2.751
thorax -2.6249 -0.63503 2.63531
lowerneck -7.41307 2.19046 0.617576
upperneck 2.75216 2.98761 -2.4064
head 2.19339 1.42942 -0.746351
rclavicle -2.03754e-014 2.70347e-014
rhumerus -38.2371 10.4123 -82.12
rradius 41.4304
rwrist 8.49527
rhand -3.89603 -13.6146
rfingers 7.12502
rthumb 21.8538 -42.4005
lclavicle -2.03754e-014 2.70347e-014
lhumerus -41.1558 4.76293 81.8384
lradius 42.6753
lwrist -2.54288
lhand 2.49894 10.4211
lfingers 7.12502
lthumb 27.9817 38.3555
rfemur 4.72897 7.31253 23.0881
rtibia 14.928
rfoot -15.9124 -19.5112
rtoes -2.79451
lfemur 1.42387 -9.34143 -12.6366
ltibia 21.0175
lfoot -18.1672 17.7941
ltoes -0.651502
43
root -33.4435 17.7256 -1.47076 -56.1998 85.3087 -51.7083
lowerback 9.58509 -1.21188 0.654388
upperback 2.6029 -1.35413 2.74937
thorax -2.61697 -0.632836 2.63672
lowerneck -7.3986 2.18779 0.628246
upperneck 2.74207 2.98357 -2.42092
head 2.18786 1.42731 -0.753143
rclavicle 9.61621e-015 1.59028e-015
rhumerus -38.2102 10.3967 -82.1112
rradius 41.4079
rwrist 8.50863
rhand -3.89348 -13.6124
rfingers 7.12502
rthumb 21.8562 -42.3981
lclavicle 9.61621e-015 1.59028e-015
lhumerus -41.1528 4.75319 81.8461
lradius 42.6735
lwrist -2.54286
lhand 2.50086 10.4148
lfingers 7.12502
lthumb 27.9835 38.3488
rfemur 4.72653 7.30005 23.072
rtibia 14.9359
rfoot -15.9033 -19.4808
rtoes -2.84242
lfemur 1.44006 -9.34741 -12.6523
ltibia 21.0087
lfoot -18.1683 17.816
ltoes -0.668102
44
root -33.4409 17.7256 -1.47111 -55.9793 85.3026 -51.4904
lowerback 9.58186 -1.20843 0.65182
upperback 2.61004 -1.34997 2.74784
thorax -2.60793 -0.630779 2.63589
lowerneck -7.3838 2.1852 0.637542
upperneck 2.73104 2.97963 -2.43286
head 2.18187 1.42531 -0.758879
rclavicle -2.80783e-014 1.74931e-014
rhumerus -38.1843 10.383 -82.1034
rradius 41.3886
rwrist 8.51721
rhand -3.89158 -13.6118
rfingers 7.12502
rthumb 21.8581 -42.3972
lclavicle -2.80783e-014 1.74931e-014
lhumerus -41.1481 4.74175 81.8532
lradius 42.6704
lwrist -2.54225
lhand 2.50338 10.407
lfingers 7.12502
lthumb 27.9859 38.3407
rfemur 4.72347 7.28819 23.0586
rtibia 14.9469
rfoot -15.8982 -19.4489
rtoes -2.89055
lfemur 1.45666 -9.34744 -12.6645
ltibia 20.9996
lfoot -18.1692 17.8343
ltoes -0.688458
45
root -33.4382 17.7253 -1.47147 -55.76 85.299 -51.2728
lowerback 9.57971 -1.20572 0.647111
upperback 2.61643 -1.34703 2.74548
thorax -2.60019 -0.629332 2.63557
lowerneck -7.36466 2.18383 0.64093
upperneck 2.71847 2.97742 -2.43678
head 2.17432 1.42437 -0.761002
rclavicle 1.85864e-014 -5.1684e-015
rhumerus -38.1714 10.3813 -82.0995
rradius 41.3859
rwrist 8.51393
rhand -3.89187 -13.6172
rfingers 7.12502
rthumb 21.8578 -42.4027
lclavicle 1.85864e-014 -5.1684e-015
lhumerus -41.1445 4.72645 81.8609
lradius 42.6673
lwrist -2.53461
lhand 2.4969 10.401
lfingers 7.12502
lthumb 27.9797 38.3357
rfemur 4.7224 7.28043 23.0438
rtibia 14.9591
rfoot -15.9018 -19.424
rtoes -2.93684
lfemur 1.47228 -9.33992 -12.6782
ltibia 20.9913
lfoot -18.1655 17.8493
ltoes -0.73424
46
root -33.4354 17.725 -1.47183 -55.5442 85.2954 -51.0582
lowerback 9.57555 -1.20333 0.641238
upperback 2.62327 -1.34468 2.74318
thorax -2.59081 -0.628182 2.63599
lowerneck -7.34281 2.1832 0.641969
upperneck 2.70623 2.97623 -2.43702
head 2.16628 1.42402 -0.761527
rclavicle -7.23079e-015 1.47101e-014
rhumerus -38.1629 10.3833 -82.0967
rradius 41.3888
rwrist 8.50429
rhand -3.89235 -13.6217
rfingers 7.12502
rthumb 21.8573 -42.4072
lclavicle -7.23079e-015 1.47101e-014
lhumerus -41.1399 4.70854 81.8684
lradius 42.6643
lwrist -2.52672
lhand 2.49081 10.4042
lfingers 7.12502
lthumb 27.9739 38.3398
rfemur 4.72392 7.27731 23.0301
rtibia 14.9702
rfoot -15.9047 -19.4031
rtoes -2.99431
lfemur 1.48754 -9.32705 -12.691
ltibia 20.9855
lfoot -18.1646 17.8594
ltoes -0.778978
47
root -33.4325 17.7245 -1.47217 -55.3535 85.2907 -50.8691
lowerback 9.57231 -1.20223 0.636874
upperback 2.6289 -1.34386 2.74116
thorax -2.58316 -0.627797 2.63607
lowerneck -7.32109 2.18434 0.639926
upperneck 2.69691 2.9774 -2.43075
head 2.15906 1.42497 -0.759334
rclavicle 2.64881e-014 -1.66979e-014
rhumerus -38.1625 10.3918 -82.0961
rradius 41.3991
rwrist 8.48907
rhand -3.89542 -13.6259
rfingers 7.12502
rthumb 21.8544 -42.4118
lclavicle 2.64881e-014 -1.66979e-014
lhumerus -41.1369 4.68979 81.8742
lradius 42.6619
lwrist -2.52006
lhand 2.48423 10.4058
lfingers 7.12502
lthumb 27.9676 38.3424
rfemur 4.72702 7.2818 23.0204
rtibia 14.9803
rfoot -15.9082 -19.3886
rtoes -3.04926
lfemur 1.50083 -9.31135 -12.7002
ltibia 20.9819
lfoot -18.1651 17.8656
ltoes -0.823217
48
root -33.4295 17.724 -1.47252 -55.1963 85.2841 -50.7145
lowerback 9.56855 -1.20172 0.635376
upperback 2.63278 -1.34354 2.73949
thorax -2.57708 -0.627664 2.63497
lowerneck -7.2964 2.1857 0.639039
upperneck 2.69026 2.97873 -2.42303
head 2.15219 1.42603 -0.756899
rclavicle 1.46355e-014 -1.43125e-014
rhumerus -38.1543 10.3883 -82.0919
rradius 41.3901
rwrist 8.48527
rhand -3.89843 -13.6178
rfingers 7.12502
rthumb 21.8515 -42.404
lclavicle 1.46355e-014 -1.43125e-014
lhumerus -41.135 4.66784 81.8793
lradius 42.6581
lwrist -2.51218
lhand 2.47465 10.408
lfingers 7.12502
lthumb 27.9584 38.3461
rfemur 4.73238 7.28756 23.0145
rtibia 14.9868
rfoot -15.9025 -19.3724
rtoes -3.10316
lfemur 1.51143 -9.28927 -12.7046
ltibia 20.9815
lfoot -18.1683 17.8659
ltoes -0.868661
